<svg width="1280" height="426" viewBox="0 0 1280 426" fill="none" xmlns="http://www.w3.org/2000/svg">
<path id="Rectangle 1512" d="M-0.124973 -3.15318H1280V91.5819C1280 91.5819 1328.59 243.121 1280 186.317C1231.41 129.513 1238.83 226.837 1249.14 263.968C1376.66 723.159 1053.2 48.8584 1033.83 114.851C1014.47 180.844 1086.39 262.123 1110.15 315.894C1171.44 454.599 867.982 89.712 720.325 45.3637C641.324 21.636 668.455 62.6907 680.913 84.5584C752.589 210.366 500.134 37.79 363.16 34.9887C213.574 31.9295 197.271 218.061 25.3854 144.65C-146.501 71.2384 1.34729 40.6294 -25.4216 -3.15316C-45.7986 -36.4814 -0.124973 -3.15318 -0.124973 -3.15318Z" fill="#A079B0"/>
</svg>
